<svg width="88" height="89" viewBox="0 0 88 89" fill="none" xmlns="http://www.w3.org/2000/svg">
<path fill-rule="evenodd" clip-rule="evenodd" d="M3.87641 2.89787C-0.0424765 6.78482 -0.0683594 13.1127 3.81859 17.0316L14.2539 27.5526C10.947 33.3052 9.05574 39.9751 9.05574 47.0866V60.3935H4.06657C2.41315 60.3935 1.07278 61.7338 1.07278 63.3873C1.07278 65.0262 2.3898 66.3576 4.02325 66.3807C2.3898 66.4039 1.07278 67.7353 1.07278 69.3742C1.07278 71.0276 2.41315 72.368 4.06657 72.368H9.05574V88.9996H87.5595V47.0866C87.5595 25.4084 69.9858 7.83471 48.3076 7.83471C40.9947 7.83471 34.1489 9.83457 28.2872 13.3172L18.0101 2.9557C14.1232 -0.963188 7.79529 -0.989079 3.87641 2.89787Z" fill="#FF003F"/>
<circle cx="59.798" cy="44.0937" r="20.9565" fill="white"/>
<circle cx="59.7984" cy="44.0931" r="14.9689" fill="black"/>
</svg>
