<svg width="95" height="92" viewBox="0 0 95 92" fill="none" xmlns="http://www.w3.org/2000/svg">
<path fill-rule="evenodd" clip-rule="evenodd" d="M16.4511 6.38656C17.7951 1.70569 22.6793 -0.999316 27.3602 0.344761L60.4382 9.84288C61.616 6.55983 64.7558 4.21152 68.4441 4.21152C73.1402 4.21152 76.9472 8.01845 76.9472 12.7145V14.5833L88.3568 17.8595C93.0377 19.2036 95.7427 24.0877 94.3986 28.7686C93.0545 33.4495 88.1703 36.1545 83.4895 34.8104L80.2648 33.8845C82.9568 38.3747 84.5043 43.6296 84.5043 49.2459C84.5043 63.7196 74.2266 75.7928 60.5712 78.5653V91.7617H46.0845V77.9388C34.7133 74.5747 26.1656 64.6349 24.8458 52.524L6.90888 47.3735C2.46119 46.0964 -0.109049 41.4556 1.16807 37.0079C2.44519 32.5602 7.08607 29.9899 11.5338 31.267L27.7858 35.9337C30.6378 30.2029 35.2739 25.5162 40.967 22.6004L22.4928 17.2957C17.812 15.9516 15.107 11.0674 16.4511 6.38656Z" fill="#B66F24"/>
<circle cx="54.0627" cy="50.0732" r="20.4702" fill="white"/>
<circle cx="54.0622" cy="50.0722" r="12.912" fill="black"/>
</svg>
