<svg width="83" height="95" viewBox="0 0 83 95" fill="none" xmlns="http://www.w3.org/2000/svg">
<path fill-rule="evenodd" clip-rule="evenodd" d="M48.665 70.0454C58.5595 66.3123 66.3756 58.3423 69.9007 48.3477C76.9375 47.9427 82.5189 42.108 82.5189 34.9697C82.5189 27.5688 76.5193 21.5692 69.1184 21.5692C68.9988 21.5692 68.8795 21.5708 68.7607 21.5739C63.1167 9.09389 50.5574 0.410309 35.9699 0.410309C16.1043 0.410309 0.000152588 16.5145 0.000152588 36.38C0.000152588 50.6891 8.35545 63.0467 20.4534 68.8402V94.2139H48.665V70.0454Z" fill="#00E94A"/>
<circle cx="53.6022" cy="23.6849" r="7.75818" fill="white"/>
<circle cx="27.5065" cy="23.6849" r="7.75818" fill="white"/>
<circle cx="53.6023" cy="23.6845" r="4.93702" fill="black"/>
<circle cx="27.5066" cy="23.6845" r="4.93702" fill="black"/>
</svg>
