<svg width="83" height="93" viewBox="0 0 83 93" fill="none" xmlns="http://www.w3.org/2000/svg">
<path fill-rule="evenodd" clip-rule="evenodd" d="M18.1782 0.52002C21.1228 0.52002 23.5099 2.90707 23.5099 5.85165V12.2796H66.1999C75.4783 12.2796 82.9999 19.8012 82.9999 29.0796C82.9999 38.358 75.4783 45.8797 66.1999 45.8797H57.1848V51.4798L70.1001 51.4798C72.2651 51.4798 74.0201 53.2349 74.0201 55.3998C74.0201 57.5648 72.2651 59.3198 70.1001 59.3198L57.1848 59.3198L57.1848 76.0877C57.1848 76.2814 57.1812 76.4743 57.174 76.6663L72.8892 92.9196H11.1627L26.8891 76.6548C26.8822 76.4666 26.8787 76.2775 26.8787 76.0877L26.8787 45.8797H17.3C8.02158 45.8797 0.499939 38.358 0.499939 29.0796C0.499939 21.343 5.72954 14.8278 12.8466 12.8762V5.85165C12.8466 2.90707 15.2337 0.52002 18.1782 0.52002Z" fill="#8E54E1"/>
<ellipse cx="41.7499" cy="55.6798" rx="9.2602" ry="9.24002" fill="white"/>
<ellipse cx="41.7499" cy="55.6798" rx="9.2602" ry="9.24002" fill="white"/>
<ellipse cx="41.7503" cy="55.6791" rx="5.89286" ry="5.88001" fill="#440000"/>
<ellipse cx="41.7503" cy="55.6791" rx="5.89286" ry="5.88001" fill="black"/>
</svg>
