<svg width="87" height="97" viewBox="0 0 87 97" fill="none" xmlns="http://www.w3.org/2000/svg">
<path fill-rule="evenodd" clip-rule="evenodd" d="M35.452 78.33C30.0297 77.2667 25.422 73.9305 22.6618 69.3544C22.4683 69.3595 22.2741 69.362 22.0794 69.362C9.8852 69.362 -0.000183105 59.4766 -0.000183105 47.2823C-0.000183105 36.7888 7.32015 28.0049 17.1327 25.759C16.9103 24.78 16.7928 23.7611 16.7928 22.7147C16.7928 15.1577 22.919 9.03156 30.476 9.03156C32.7485 9.03156 34.8917 9.58556 36.7777 10.5659C39.3304 4.54629 45.2946 0.323883 52.2449 0.323883C58.343 0.323883 63.6819 3.57429 66.6237 8.43709C67.7635 8.01684 68.9956 7.78735 70.2813 7.78735C76.1208 7.78735 80.8547 12.5212 80.8547 18.3607C80.8547 20.0412 80.4626 21.6302 79.765 23.0411C83.8605 26.5767 86.4525 31.8064 86.4525 37.6415C86.4525 45.6781 81.5356 52.5663 74.5458 55.4619C75.4062 57.6478 75.8787 60.0289 75.8787 62.5203C75.8787 70.9923 70.4146 78.1881 62.8183 80.7757V96.106H35.452V78.33Z" fill="#FFE800"/>
<circle cx="23.0128" cy="48.2153" r="12.4392" fill="white"/>
<circle cx="23.0124" cy="48.2148" r="8.70746" fill="black"/>
<circle cx="69.6597" cy="38.2638" r="12.4392" fill="white"/>
<circle cx="69.6596" cy="38.264" r="8.70746" fill="black"/>
</svg>
