<svg width="81" height="95" viewBox="0 0 81 95" fill="none" xmlns="http://www.w3.org/2000/svg">
<path fill-rule="evenodd" clip-rule="evenodd" d="M60.8867 39.6461C63.6623 35.6554 65.2895 30.8059 65.2895 25.5764C65.2895 11.9514 54.2442 0.906158 40.6192 0.906158C26.9942 0.906158 15.949 11.9514 15.949 25.5764C15.949 26.4081 15.9901 27.2301 16.0705 28.0406C7.57881 28.7432 0.906212 35.8578 0.906212 44.5308C0.906212 53.1624 7.51523 60.2504 15.949 61.0104V94.7733H53.2552V83.339C62.495 83.2183 70.3951 77.5439 73.7701 69.5014H77.3242C79.3181 69.5014 80.9345 67.885 80.9345 65.8911C80.9345 63.9046 79.3302 62.2929 77.3466 62.2809C79.3302 62.2688 80.9345 60.6571 80.9345 58.6707C80.9345 56.6767 79.3181 55.0604 77.3242 55.0604H74.7883C72.9311 47.9469 67.6895 42.201 60.8867 39.6461Z" fill="#FE3FFF"/>
<circle cx="52.9549" cy="60.7771" r="18.3523" fill="white"/>
<circle cx="52.9544" cy="60.7766" r="12.3351" fill="black"/>
</svg>
