<svg width="75" height="95" viewBox="0 0 75 95" fill="none" xmlns="http://www.w3.org/2000/svg">
<g clip-path="url(#clip0_115_4090)">
<path fill-rule="evenodd" clip-rule="evenodd" d="M22.1406 4.00543C19.9739 0.949777 15.7404 0.229149 12.6847 2.39586C9.62905 4.56258 8.90842 8.79615 11.0751 11.8518L24.13 30.2626L4.71597 43.4335C-0.197437 46.7669 -1.47832 53.4522 1.85504 58.3656C5.18841 63.279 11.8737 64.5599 16.7871 61.2265L26.8693 54.3866L26.8693 79.9679L5.08097 117.301H66.0743L45.0445 81.2675V78.6786H48.4517C49.4973 78.6786 50.3449 77.8309 50.3449 76.7853C50.3449 75.7397 49.4973 74.8921 48.4517 74.8921H45.0445V74.8916H48.4517C49.4973 74.8916 50.3449 74.044 50.3449 72.9984C50.3449 71.9527 49.4973 71.1051 48.4517 71.1051H47.757C52.3645 69.3897 55.6466 64.9512 55.6466 59.746C55.6466 53.5671 51.0216 48.4684 45.0445 47.723V42.0561L69.7991 25.2621C74.7125 21.9287 75.9934 15.2434 72.66 10.33C69.3266 5.41658 62.6413 4.13569 57.7279 7.46906L35.3579 22.6454L22.1406 4.00543Z" fill="#FF6C7C"/>
<circle cx="36.1446" cy="58.7956" r="7.22892" fill="white"/>
<circle cx="36.1446" cy="58.7956" r="5.42169" fill="black"/>
</g>
<defs>
<clipPath id="clip0_115_4090">
<rect width="75" height="93.0723" fill="white" transform="translate(0 0.96402)"/>
</clipPath>
</defs>
</svg>
