<svg width="1942" height="1039" viewBox="0 0 1942 1039" fill="none" xmlns="http://www.w3.org/2000/svg">
<path opacity="0.05" d="M75.9187 11.8128L75.9186 1027.13M1018.65 11.8128L1018.65 1027.13M1941.08 708.045L0 708.045M547.282 11.8128L547.282 1027.13M1941.08 236.682L0 236.682M1490.01 11.8128V1027.13M123.055 11.8128L123.055 1027.13M1065.78 11.8128V1027.13M1941.08 755.182L0 755.182M594.419 11.8128L594.419 1027.13M1941.08 283.818L0 283.818M1537.15 11.8128V1027.13M170.191 11.8128L170.191 1027.13M1112.92 11.8128V1027.13M1941.08 802.318L0 802.318M641.555 11.8128L641.555 1027.13M1941.08 330.955L0 330.955M1584.28 11.8128V1027.13M217.328 11.8128L217.328 1027.13M1160.05 11.8128V1027.13M1941.08 849.455L0 849.454M688.691 11.8128L688.691 1027.13M1941.08 378.091L0 378.091M1631.42 11.8128V1027.13M264.464 11.8128L264.464 1027.13M1207.19 11.8128V1027.13M1941.08 896.591L0 896.591M735.828 11.8128L735.828 1027.13M1941.08 425.227L0 425.227M1678.55 11.8128V1027.13M311.6 11.8128L311.6 1027.13M1941.08 1.00009L0 1M1254.33 11.8128V1027.13M1941.08 943.727L0 943.727M782.964 11.8128L782.964 1027.13M1941.08 472.364L0 472.364M1725.69 11.8128V1027.13M358.737 11.8128L358.737 1027.13M1941.08 48.1364L0 48.1363M1301.46 11.8128V1027.13M1941.08 990.864L0 990.864M830.1 11.8128L830.1 1027.13M1941.08 519.5L0 519.5M1772.83 11.8128V1027.13M405.873 11.8128L405.873 1027.13M1941.08 95.2728L0 95.2727M1348.6 11.8128V1027.13M1941.08 1038L0 1038M877.237 11.8128L877.237 1027.13M1941.08 566.636L0 566.636M1819.96 11.8128V1027.13M453.009 11.8128L453.009 1027.13M1941.08 142.409L0 142.409M1395.74 11.8128V1027.13M924.373 11.8128L924.373 1027.13M1941.08 613.773L0 613.773M1867.1 11.8128V1027.13M500.146 11.8128L500.146 1027.13M1941.08 189.546L0 189.545M1442.87 11.8128V1027.13M971.509 11.8128L971.509 1027.13M1941.08 660.909L0 660.909M1914.24 11.8128V1027.13" stroke="#F9F4DA"/>
</svg>
