<svg width="122" height="122" viewBox="0 0 122 122" fill="none" xmlns="http://www.w3.org/2000/svg">
<g filter="url(#filter0_d_129_1064)">
<path d="M47.7612 11.4006C47.3019 10.6351 46.4746 10.1666 45.5818 10.1666H21.0099C19.0343 10.1666 17.814 12.3219 18.8304 14.016L46.2804 59.766C46.7398 60.5315 47.5671 61 48.4599 61H73.0318C75.0074 61 76.2277 58.8447 75.2112 57.1506L47.7612 11.4006Z" fill="#C52229"/>
<path fill-rule="evenodd" clip-rule="evenodd" d="M45.5818 7.625H21.0099C17.0586 7.625 14.6181 11.9355 16.651 15.3237L44.101 61.0737C45.0196 62.6048 46.6743 63.5417 48.4599 63.5417H73.0318C76.983 63.5417 79.4236 59.2311 77.3907 55.843L49.9407 10.093C49.022 8.56186 47.3673 7.625 45.5818 7.625ZM45.5818 10.1667C46.4745 10.1667 47.3019 10.6351 47.7612 11.4007L75.2112 57.1507C76.2277 58.8447 75.0074 61 73.0318 61H48.4599C47.5671 61 46.7398 60.5316 46.2804 59.766L18.8304 14.016C17.814 12.3219 19.0343 10.1667 21.0099 10.1667H45.5818Z" fill="#9B0F15"/>
<path d="M74.2388 11.4006C74.6981 10.6351 75.5254 10.1666 76.4182 10.1666H100.99C102.966 10.1666 104.186 12.3219 103.17 14.016L75.7196 59.766C75.2602 60.5315 74.4329 61 73.5401 61H48.9682C46.9926 61 45.7723 58.8447 46.7888 57.1506L74.2388 11.4006Z" fill="#F1333B"/>
<path fill-rule="evenodd" clip-rule="evenodd" d="M76.4182 7.625H100.99C104.941 7.625 107.382 11.9355 105.349 15.3237L77.899 61.0737C76.9803 62.6048 75.3257 63.5417 73.5401 63.5417H48.9682C45.017 63.5417 42.5764 59.2311 44.6093 55.843L72.0593 10.093C72.978 8.56186 74.6326 7.625 76.4182 7.625ZM76.4182 10.1667C75.5254 10.1667 74.6981 10.6351 74.2388 11.4007L46.7888 57.1507C45.7723 58.8447 46.9926 61 48.9682 61H73.5401C74.4329 61 75.2602 60.5316 75.7196 59.766L103.17 14.016C104.186 12.3219 102.966 10.1667 100.99 10.1667H76.4182Z" fill="#9B0F15"/>
<path fill-rule="evenodd" clip-rule="evenodd" d="M76.8881 11.6094C77.4951 11.9618 77.7014 12.7396 77.349 13.3466L65.9115 33.0445C65.5591 33.6514 64.7813 33.8578 64.1744 33.5053C63.5674 33.1529 63.3611 32.3752 63.7135 31.7682L75.151 12.0703C75.5034 11.4633 76.2812 11.257 76.8881 11.6094Z" fill="#FE666D"/>
<path fill-rule="evenodd" clip-rule="evenodd" d="M20.966 11.6094C20.3591 11.9618 20.1527 12.7396 20.5052 13.3466L31.9427 33.0445C32.2951 33.6514 33.0728 33.8578 33.6798 33.5053C34.2868 33.1529 34.4931 32.3752 34.1407 31.7682L22.7032 12.0703C22.3507 11.4633 21.573 11.257 20.966 11.6094Z" fill="#DF3840"/>
<path d="M45.1146 14.3366C45.1146 15.2359 44.4034 15.9649 43.526 15.9649C42.6487 15.9649 41.9375 15.2359 41.9375 14.3366C41.9375 13.4374 42.6487 12.7084 43.526 12.7084C44.4034 12.7084 45.1146 13.4374 45.1146 14.3366Z" fill="#AA161D"/>
<path d="M39.5353 14.7338C39.5353 15.8524 38.6506 16.7592 37.5593 16.7592C36.468 16.7592 35.5833 15.8524 35.5833 14.7338C35.5833 13.6152 36.468 12.7084 37.5593 12.7084C38.6506 12.7084 39.5353 13.6152 39.5353 14.7338Z" fill="#AA161D"/>
<path d="M44.4792 20.5319C44.4792 21.6505 43.5945 22.5573 42.5032 22.5573C41.4119 22.5573 40.5272 21.6505 40.5272 20.5319C40.5272 19.4133 41.4119 18.5065 42.5032 18.5065C43.5945 18.5065 44.4792 19.4133 44.4792 20.5319Z" fill="#AA161D"/>
<path d="M48.9968 17.7719C48.9968 18.3311 48.5545 18.7845 48.0088 18.7845C47.4632 18.7845 47.0208 18.3311 47.0208 17.7719C47.0208 17.2126 47.4632 16.7592 48.0088 16.7592C48.5545 16.7592 48.9968 17.2126 48.9968 17.7719Z" fill="#AA161D"/>
<path d="M38.5473 19.5192C38.5473 20.0785 38.105 20.5319 37.5593 20.5319C37.0137 20.5319 36.5713 20.0785 36.5713 19.5192C36.5713 18.9599 37.0137 18.5065 37.5593 18.5065C38.105 18.5065 38.5473 18.9599 38.5473 19.5192Z" fill="#AA161D"/>
<path d="M33.0417 13.3239C33.0417 13.8831 32.5993 14.3365 32.0537 14.3365C31.508 14.3365 31.0657 13.8831 31.0657 13.3239C31.0657 12.7646 31.508 12.3112 32.0537 12.3112C32.5993 12.3112 33.0417 12.7646 33.0417 13.3239Z" fill="#AA161D"/>
<path d="M48.0088 24.8408C48.0088 25.4001 47.5665 25.8535 47.0208 25.8535C46.4752 25.8535 46.0328 25.4001 46.0328 24.8408C46.0328 24.2815 46.4752 23.8281 47.0208 23.8281C47.5665 23.8281 48.0088 24.2815 48.0088 24.8408Z" fill="#AA161D"/>
<path d="M42.9255 25.8535C42.9255 26.4128 42.4832 26.8662 41.9375 26.8662C41.3918 26.8662 40.9495 26.4128 40.9495 25.8535C40.9495 25.2942 41.3918 24.8408 41.9375 24.8408C42.4832 24.8408 42.9255 25.2942 42.9255 25.8535Z" fill="#AA161D"/>
<path d="M52.7783 22.18C52.7783 23.0902 52.0584 23.8281 51.1704 23.8281C50.2824 23.8281 49.5625 23.0902 49.5625 22.18C49.5625 21.2697 50.2824 20.5319 51.1704 20.5319C52.0584 20.5319 52.7783 21.2697 52.7783 22.18Z" fill="#AA161D"/>
<path d="M54.8744 26.8662C54.8744 27.4255 54.4321 27.8789 53.8864 27.8789C53.3408 27.8789 52.8984 27.4255 52.8984 26.8662C52.8984 26.3069 53.3408 25.8535 53.8864 25.8535C54.4321 25.8535 54.8744 26.3069 54.8744 26.8662Z" fill="#AA161D"/>
<path d="M95.3125 77.5209C95.3125 96.4711 79.9503 111.833 61 111.833C42.0497 111.833 26.6875 96.4711 26.6875 77.5209C26.6875 58.5706 42.0497 43.2084 61 43.2084C79.9503 43.2084 95.3125 58.5706 95.3125 77.5209Z" fill="#DCA16A"/>
<path fill-rule="evenodd" clip-rule="evenodd" d="M97.8542 77.5208C97.8542 97.8748 81.354 114.375 61 114.375C40.646 114.375 24.1458 97.8748 24.1458 77.5208C24.1458 57.1668 40.646 40.6666 61 40.6666C81.354 40.6666 97.8542 57.1668 97.8542 77.5208ZM61 111.833C79.9503 111.833 95.3125 96.4711 95.3125 77.5208C95.3125 58.5705 79.9503 43.2083 61 43.2083C42.0497 43.2083 26.6875 58.5705 26.6875 77.5208C26.6875 96.4711 42.0497 111.833 61 111.833Z" fill="#C38144"/>
<path fill-rule="evenodd" clip-rule="evenodd" d="M29.2292 78.7916C28.5273 78.7916 27.9583 78.2227 27.9583 77.5208C27.9583 59.2724 42.7516 44.4791 61 44.4791C61.7019 44.4791 62.2708 45.0481 62.2708 45.75C62.2708 46.4518 61.7019 47.0208 61 47.0208C44.1553 47.0208 30.5 60.6761 30.5 77.5208C30.5 78.2227 29.931 78.7916 29.2292 78.7916Z" fill="#F0B57F"/>
<path fill-rule="evenodd" clip-rule="evenodd" d="M92.7708 76.25C93.4727 76.25 94.0417 76.819 94.0417 77.5208C94.0417 95.7692 79.2484 110.562 61 110.562C60.2981 110.562 59.7292 109.994 59.7292 109.292C59.7292 108.59 60.2981 108.021 61 108.021C77.8447 108.021 91.5 94.3655 91.5 77.5208C91.5 76.819 92.069 76.25 92.7708 76.25Z" fill="#CF945D"/>
<path d="M86.4167 77.5208C86.4167 91.558 75.0372 102.937 61 102.937C46.9628 102.937 35.5833 91.558 35.5833 77.5208C35.5833 63.4836 46.9628 52.1041 61 52.1041C75.0372 52.1041 86.4167 63.4836 86.4167 77.5208Z" fill="#F7BA82"/>
<path fill-rule="evenodd" clip-rule="evenodd" d="M88.9583 77.5208C88.9583 92.9618 76.441 105.479 61 105.479C45.559 105.479 33.0417 92.9618 33.0417 77.5208C33.0417 62.0799 45.559 49.5625 61 49.5625C76.441 49.5625 88.9583 62.0799 88.9583 77.5208ZM61 102.938C75.0372 102.938 86.4167 91.5581 86.4167 77.5208C86.4167 63.4836 75.0372 52.1042 61 52.1042C46.9628 52.1042 35.5833 63.4836 35.5833 77.5208C35.5833 91.5581 46.9628 102.938 61 102.938Z" fill="#C38144"/>
<path fill-rule="evenodd" clip-rule="evenodd" d="M61 99.125C72.9317 99.125 82.6042 89.4524 82.6042 77.5208C82.6042 76.8189 83.1732 76.25 83.875 76.25C84.5769 76.25 85.1458 76.8189 85.1458 77.5208C85.1458 90.8562 74.3354 101.667 61 101.667C60.2981 101.667 59.7292 101.098 59.7292 100.396C59.7292 99.6939 60.2981 99.125 61 99.125Z" fill="#E6A66C"/>
<path fill-rule="evenodd" clip-rule="evenodd" d="M61 55.9167C49.0684 55.9167 39.3958 65.5892 39.3958 77.5208C39.3958 78.2227 38.8269 78.7917 38.125 78.7917C37.4231 78.7917 36.8542 78.2227 36.8542 77.5208C36.8542 64.1855 47.6646 53.375 61 53.375C61.7019 53.375 62.2708 53.944 62.2708 54.6458C62.2708 55.3477 61.7019 55.9167 61 55.9167Z" fill="#FFD5AE"/>
<path d="M57.9867 75.0258H60.2802C61.0149 75.0258 61.6205 74.9017 62.0971 74.6534C62.5737 74.3953 62.9261 74.0379 63.1545 73.5812C63.3927 73.1145 63.5119 72.5734 63.5119 71.9579C63.5119 71.4019 63.4027 70.9104 63.1842 70.4835C62.9758 70.0467 62.6531 69.7091 62.2162 69.4708C61.7794 69.2226 61.2284 69.0985 60.5632 69.0985C60.037 69.0985 59.5505 69.2028 59.1037 69.4113C58.6569 69.6198 58.2995 69.9126 58.0314 70.2899C57.7634 70.6672 57.6293 71.1239 57.6293 71.66H53.3254C53.3254 70.4686 53.6431 69.4311 54.2785 68.5475C54.9238 67.6639 55.7876 66.9738 56.8698 66.4774C57.952 65.981 59.1434 65.7328 60.444 65.7328C61.9134 65.7328 63.1991 65.9711 64.3012 66.4476C65.4032 66.9143 66.262 67.6043 66.8776 68.5177C67.4932 69.4311 67.8009 70.5629 67.8009 71.9132C67.8009 72.5983 67.6421 73.2635 67.3244 73.9088C67.0067 74.5442 66.55 75.1201 65.9543 75.6364C65.3685 76.1427 64.6537 76.5498 63.8097 76.8575C62.9658 77.1554 62.0177 77.3043 60.9653 77.3043H57.9867V75.0258ZM57.9867 78.2872V76.0682H60.9653C62.1467 76.0682 63.1842 76.2023 64.0778 76.4703C64.9714 76.7384 65.721 77.1256 66.3266 77.632C66.9322 78.1284 67.3889 78.7191 67.6967 79.4042C68.0045 80.0793 68.1584 80.8289 68.1584 81.653C68.1584 82.6656 67.9648 83.5691 67.5776 84.3634C67.1904 85.1477 66.6443 85.8129 65.9394 86.359C65.2444 86.9051 64.4303 87.3221 63.497 87.61C62.5637 87.888 61.5461 88.027 60.444 88.027C59.5306 88.027 58.6321 87.9029 57.7485 87.6547C56.8748 87.3965 56.0805 87.0143 55.3656 86.5079C54.6607 85.9917 54.0948 85.3463 53.6679 84.5719C53.2509 83.7876 53.0424 82.8593 53.0424 81.787H57.3464C57.3464 82.343 57.4854 82.8394 57.7634 83.2762C58.0413 83.7131 58.4236 84.0556 58.9101 84.3038C59.4065 84.552 59.9575 84.6761 60.5632 84.6761C61.2482 84.6761 61.834 84.552 62.3205 84.3038C62.8169 84.0457 63.1942 83.6883 63.4523 83.2316C63.7204 82.7649 63.8544 82.2238 63.8544 81.6083C63.8544 80.814 63.7105 80.1786 63.4225 79.702C63.1346 79.2155 62.7226 78.8581 62.1864 78.6298C61.6503 78.4014 61.0149 78.2872 60.2802 78.2872H57.9867Z" fill="#FFD5AE"/>
<path d="M57.9867 75.0258V72.4841C56.583 72.4841 55.4451 73.622 55.4451 75.0258H57.9867ZM62.0971 74.6534L63.2712 76.9077C63.2834 76.9013 63.2955 76.8949 63.3076 76.8883L62.0971 74.6534ZM63.1545 73.5812L60.8908 72.4253C60.8876 72.4317 60.8843 72.4381 60.8811 72.4445L63.1545 73.5812ZM63.1842 70.4835L60.8904 71.5783C60.9005 71.5994 60.9109 71.6204 60.9215 71.6412L63.1842 70.4835ZM62.2162 69.4708L60.9606 71.6807C60.9734 71.688 60.9862 71.6951 60.9991 71.7021L62.2162 69.4708ZM57.6293 71.66V74.2017C59.033 74.2017 60.171 73.0638 60.171 71.66H57.6293ZM53.3254 71.66H50.7837C50.7837 73.0638 51.9216 74.2017 53.3254 74.2017V71.66ZM54.2785 68.5475L52.2259 67.0484C52.2223 67.0535 52.2186 67.0585 52.215 67.0636L54.2785 68.5475ZM64.3012 66.4476L63.2924 68.7805C63.2983 68.7831 63.3042 68.7856 63.3102 68.7881L64.3012 66.4476ZM66.8776 68.5177L68.9853 67.0973L66.8776 68.5177ZM67.3244 73.9088L69.5977 75.0455C69.6001 75.0408 69.6024 75.0361 69.6047 75.0314L67.3244 73.9088ZM65.9543 75.6364L67.6164 77.5592L67.6189 77.5571L65.9543 75.6364ZM63.8097 76.8575L64.6557 79.2543C64.664 79.2514 64.6723 79.2484 64.6806 79.2454L63.8097 76.8575ZM57.9867 77.3043H55.4451C55.4451 78.708 56.583 79.846 57.9867 79.846V77.3043ZM57.9867 78.2872H55.4451C55.4451 79.691 56.583 80.8289 57.9867 80.8289V78.2872ZM57.9867 76.0682V73.5266C56.583 73.5266 55.4451 74.6645 55.4451 76.0682H57.9867ZM66.3266 77.632L64.6963 79.5819C64.7026 79.5872 64.709 79.5924 64.7154 79.5977L66.3266 77.632ZM67.6967 79.4042L65.3782 80.4458L65.384 80.4585L67.6967 79.4042ZM67.5776 84.3634L69.8567 85.4885L69.8622 85.4772L67.5776 84.3634ZM65.9394 86.359L64.3829 84.3497C64.3783 84.3533 64.3737 84.3568 64.3691 84.3604L65.9394 86.359ZM63.497 87.61L64.2226 90.0459C64.2305 90.0435 64.2384 90.0411 64.2463 90.0387L63.497 87.61ZM57.7485 87.6547L57.0283 90.0922C57.0392 90.0954 57.0501 90.0985 57.0611 90.1016L57.7485 87.6547ZM55.3656 86.5079L53.8638 88.5585C53.8747 88.5664 53.8856 88.5742 53.8965 88.582L55.3656 86.5079ZM53.6679 84.5719L51.4237 85.765C51.4297 85.7764 51.4358 85.7877 51.442 85.799L53.6679 84.5719ZM53.0424 81.787V79.2453C51.6387 79.2453 50.5007 80.3833 50.5007 81.787H53.0424ZM57.3464 81.787H59.888C59.888 80.3833 58.7501 79.2453 57.3464 79.2453V81.787ZM58.9101 84.3038L57.755 86.5679C57.7611 86.571 57.7673 86.5741 57.7734 86.5772L58.9101 84.3038ZM62.3205 84.3038L63.4756 86.5679C63.4814 86.5649 63.4873 86.5619 63.4931 86.5588L62.3205 84.3038ZM63.4523 83.2316L61.2484 81.9655C61.2455 81.9706 61.2425 81.9758 61.2396 81.9809L63.4523 83.2316ZM63.4225 79.702L61.2352 80.9965C61.2392 81.0032 61.2431 81.0098 61.2471 81.0164L63.4225 79.702ZM57.9867 77.5674H60.2802V72.4841H57.9867V77.5674ZM60.2802 77.5674C61.281 77.5674 62.3237 77.4012 63.2712 76.9077L60.923 72.3992C60.9173 72.4022 60.7488 72.4841 60.2802 72.4841V77.5674ZM63.3076 76.8883C64.213 76.3979 64.9515 75.6704 65.4278 74.7178L60.8811 72.4445C60.8819 72.4429 60.885 72.4371 60.8908 72.429C60.8967 72.4208 60.9031 72.4132 60.9091 72.4072C60.915 72.4011 60.918 72.3991 60.916 72.4006C60.9139 72.4022 60.9049 72.4086 60.8865 72.4186L63.3076 76.8883ZM65.4181 74.7371C65.8685 73.8549 66.0536 72.9052 66.0536 71.9579H60.9702C60.9702 72.2417 60.917 72.3742 60.8908 72.4253L65.4181 74.7371ZM66.0536 71.9579C66.0536 71.0636 65.8759 70.1643 65.447 69.3259L60.9215 71.6412C60.9294 71.6566 60.9702 71.7402 60.9702 71.9579H66.0536ZM65.4781 69.3887C65.0324 68.4549 64.3256 67.7262 63.4333 67.2395L60.9991 71.7021C61.0027 71.7041 60.9798 71.6916 60.9486 71.659C60.9169 71.6258 60.898 71.5942 60.8904 71.5783L65.4781 69.3887ZM63.4718 67.261C62.5479 66.736 61.5305 66.5568 60.5632 66.5568V71.6402C60.9262 71.6402 61.0109 71.7093 60.9606 71.6807L63.4718 67.261ZM60.5632 66.5568C59.691 66.5568 58.8345 66.7321 58.0288 67.108L60.1785 71.7145C60.2664 71.6735 60.3829 71.6402 60.5632 71.6402V66.5568ZM58.0288 67.108C57.2103 67.49 56.4991 68.0584 55.9595 68.8178L60.1033 71.7621C60.1066 71.7575 60.108 71.7561 60.1115 71.7532C60.1157 71.7498 60.1344 71.7351 60.1785 71.7145L58.0288 67.108ZM55.9595 68.8178C55.3394 69.6905 55.0877 70.6827 55.0877 71.66H60.171C60.171 71.6041 60.1778 71.5998 60.1687 71.6311C60.1642 71.6465 60.1567 71.6673 60.145 71.6916C60.1332 71.716 60.1191 71.7399 60.1033 71.7621L55.9595 68.8178ZM57.6293 69.1184H53.3254V74.2017H57.6293V69.1184ZM55.867 71.66C55.867 70.9481 56.0471 70.4415 56.342 70.0314L52.215 67.0636C51.2391 68.4207 50.7837 69.9891 50.7837 71.66H55.867ZM56.331 70.0465C56.6979 69.5441 57.2064 69.1193 57.9295 68.7876L55.8101 64.1672C54.3688 64.8283 53.1497 65.7836 52.2259 67.0484L56.331 70.0465ZM57.9295 68.7876C58.6495 68.4574 59.475 68.2745 60.444 68.2745V63.1911C58.8118 63.1911 57.2545 63.5046 55.8101 64.1672L57.9295 68.7876ZM60.444 68.2745C61.6421 68.2745 62.5716 68.4688 63.2924 68.7805L65.31 64.1147C63.8266 63.4733 62.1847 63.1911 60.444 63.1911V68.2745ZM63.3102 68.7881C63.9996 69.0801 64.4534 69.4685 64.7699 69.9381L68.9853 67.0973C68.0707 65.7401 66.8069 64.7485 65.2922 64.1071L63.3102 68.7881ZM64.7699 69.9381C65.0444 70.3454 65.2593 70.9537 65.2593 71.9132H70.3426C70.3426 70.1722 69.942 68.5168 68.9853 67.0973L64.7699 69.9381ZM65.2593 71.9132C65.2593 72.1895 65.1987 72.4722 65.0441 72.7862L69.6047 75.0314C70.0855 74.0548 70.3426 73.0071 70.3426 71.9132H65.2593ZM65.0511 72.7721C64.8983 73.0776 64.6606 73.3941 64.2897 73.7156L67.6189 77.5571C68.4393 76.846 69.115 76.0109 69.5977 75.0455L65.0511 72.7721ZM64.2921 73.7135C63.9739 73.9886 63.5387 74.251 62.9389 74.4697L64.6806 79.2454C65.7686 78.8486 66.7631 78.2968 67.6164 77.5592L64.2921 73.7135ZM62.9638 74.4608C62.4347 74.6475 61.7791 74.7627 60.9653 74.7627V79.846C62.2563 79.846 63.4969 79.6633 64.6557 79.2543L62.9638 74.4608ZM60.9653 74.7627H57.9867V79.846H60.9653V74.7627ZM60.5284 77.3043V75.0258H55.4451V77.3043H60.5284ZM60.5284 78.2872V76.0682H55.4451V78.2872H60.5284ZM57.9867 78.6099H60.9653V73.5266H57.9867V78.6099ZM60.9653 78.6099C61.9619 78.6099 62.7441 78.7238 63.3475 78.9048L64.8081 74.0359C63.6244 73.6807 62.3315 73.5266 60.9653 73.5266V78.6099ZM63.3475 78.9048C63.9703 79.0917 64.3982 79.3327 64.6963 79.5819L67.9569 75.682C67.0437 74.9185 65.9724 74.3851 64.8081 74.0359L63.3475 78.9048ZM64.7154 79.5977C65.0303 79.8558 65.2385 80.1347 65.3783 80.4458L70.0151 78.3626C69.5393 77.3035 68.8341 76.4009 67.9378 75.6663L64.7154 79.5977ZM65.384 80.4585C65.525 80.7676 65.6167 81.1522 65.6167 81.653H70.7C70.7 80.5056 70.484 79.391 70.0094 78.3499L65.384 80.4585ZM65.6167 81.653C65.6167 82.3362 65.4879 82.8497 65.2929 83.2496L69.8622 85.4772C70.4417 84.2885 70.7 82.9951 70.7 81.653H65.6167ZM65.2985 83.2383C65.0853 83.67 64.7891 84.035 64.3829 84.3497L67.4959 88.3683C68.4995 87.5909 69.2954 86.6255 69.8566 85.4885L65.2985 83.2383ZM64.3691 84.3604C63.9435 84.6948 63.4145 84.9756 62.7477 85.1813L64.2463 90.0387C65.446 89.6686 66.5452 89.1153 67.5097 88.3576L64.3691 84.3604ZM62.7714 85.1741C62.1023 85.3734 61.3322 85.4853 60.444 85.4853V90.5686C61.76 90.5686 63.0252 90.4026 64.2226 90.0459L62.7714 85.1741ZM60.444 85.4853C59.7641 85.4853 59.0968 85.3934 58.4358 85.2077L57.0611 90.1016C58.1674 90.4124 59.2971 90.5686 60.444 90.5686V85.4853ZM58.4686 85.2172C57.852 85.035 57.3126 84.7723 56.8348 84.4339L53.8965 88.582C54.8484 89.2562 55.8975 89.7581 57.0283 90.0922L58.4686 85.2172ZM56.8674 84.4574C56.4646 84.1624 56.1443 83.7994 55.8937 83.3448L51.442 85.799C52.0453 86.8932 52.8568 87.8209 53.8638 88.5585L56.8674 84.4574ZM55.9121 83.3788C55.727 83.0305 55.5841 82.5287 55.5841 81.787H50.5007C50.5007 83.1898 50.7748 84.5446 51.4237 85.765L55.9121 83.3788ZM53.0424 84.3287H57.3464V79.2453H53.0424V84.3287ZM54.8047 81.787C54.8047 82.7892 55.0623 83.7659 55.619 84.6408L59.9077 81.9117C59.9019 81.9026 59.9001 81.8981 59.8981 81.891C59.8958 81.8826 59.888 81.8514 59.888 81.787H54.8047ZM55.619 84.6408C56.1541 85.4816 56.8874 86.1252 57.755 86.5679L60.0652 82.0398C59.9598 81.986 59.9286 81.9446 59.9077 81.9117L55.619 84.6408ZM57.7734 86.5772C58.6541 87.0175 59.5996 87.2178 60.5632 87.2178V82.1345C60.3155 82.1345 60.1589 82.0866 60.0467 82.0305L57.7734 86.5772ZM60.5632 87.2178C61.55 87.2178 62.552 87.0391 63.4756 86.5679L61.1654 82.0398C61.116 82.065 60.9465 82.1345 60.5632 82.1345V87.2178ZM63.4931 86.5588C64.3957 86.0895 65.1484 85.3963 65.665 84.4822L61.2396 81.9809C61.2338 81.9912 61.231 81.9939 61.2277 81.997C61.2235 82.001 61.2021 82.0206 61.1479 82.0488L63.4931 86.5588ZM65.6562 84.4976C66.1758 83.5931 66.3961 82.6032 66.3961 81.6083H61.3127C61.3127 81.8444 61.265 81.9367 61.2484 81.9655L65.6562 84.4976ZM66.3961 81.6083C66.3961 80.5379 66.2067 79.3952 65.598 78.3877L61.2471 81.0164C61.2142 80.962 61.3127 81.0901 61.3127 81.6083H66.3961ZM65.6098 78.4075C65.0372 77.4399 64.2003 76.7249 63.1824 76.2914L61.1905 80.9682C61.2123 80.9774 61.2244 80.9844 61.2294 80.9875C61.2342 80.9905 61.2345 80.9911 61.2321 80.989C61.2296 80.9869 61.2277 80.9848 61.227 80.984C61.2263 80.9832 61.2294 80.9866 61.2352 80.9965L65.6098 78.4075ZM63.1824 76.2914C62.2608 75.8988 61.2711 75.7456 60.2802 75.7456V80.8289C60.7587 80.8289 61.0398 80.904 61.1905 80.9682L63.1824 76.2914ZM60.2802 75.7456H57.9867V80.8289H60.2802V75.7456Z" fill="#C28044"/>
</g>
<defs>
<filter id="filter0_d_129_1064" x="0" y="0" width="124.542" height="124.542" filterUnits="userSpaceOnUse" color-interpolation-filters="sRGB">
<feFlood flood-opacity="0" result="BackgroundImageFix"/>
<feColorMatrix in="SourceAlpha" type="matrix" values="0 0 0 0 0 0 0 0 0 0 0 0 0 0 0 0 0 0 127 0" result="hardAlpha"/>
<feOffset dx="2.54167" dy="2.54167"/>
<feColorMatrix type="matrix" values="0 0 0 0 0.637788 0 0 0 0 0.545996 0 0 0 0 0.47948 0 0 0 0.2 0"/>
<feBlend mode="normal" in2="BackgroundImageFix" result="effect1_dropShadow_129_1064"/>
<feBlend mode="normal" in="SourceGraphic" in2="effect1_dropShadow_129_1064" result="shape"/>
</filter>
</defs>
</svg>
