<svg width="122" height="122" viewBox="0 0 122 122" fill="none" xmlns="http://www.w3.org/2000/svg">
<g filter="url(#filter0_d_129_1045)">
<path d="M47.7612 11.4006C47.3019 10.6351 46.4745 10.1666 45.5817 10.1666H21.0099C19.0342 10.1666 17.814 12.3219 18.8304 14.016L46.2804 59.766C46.7397 60.5315 47.5671 61 48.4599 61H73.0317C75.0074 61 76.2277 58.8447 75.2112 57.1506L47.7612 11.4006Z" fill="#C52229"/>
<path fill-rule="evenodd" clip-rule="evenodd" d="M45.5817 7.625H21.0099C17.0586 7.625 14.618 11.9355 16.651 15.3237L44.1009 61.0737C45.0196 62.6048 46.6743 63.5417 48.4599 63.5417H73.0317C76.983 63.5417 79.4236 59.2311 77.3907 55.843L49.9407 10.093C49.022 8.56186 47.3673 7.625 45.5817 7.625ZM45.5817 10.1667C46.4745 10.1667 47.3019 10.6351 47.7612 11.4007L75.2112 57.1507C76.2277 58.8447 75.0074 61 73.0317 61H48.4599C47.5671 61 46.7397 60.5316 46.2804 59.766L18.8304 14.016C17.814 12.3219 19.0342 10.1667 21.0099 10.1667H45.5817Z" fill="#9B0F15"/>
<path d="M74.2388 11.4006C74.6981 10.6351 75.5255 10.1666 76.4183 10.1666H100.99C102.966 10.1666 104.186 12.3219 103.17 14.016L75.7196 59.766C75.2603 60.5315 74.4329 61 73.5401 61H48.9683C46.9926 61 45.7723 58.8447 46.7888 57.1506L74.2388 11.4006Z" fill="#F1333B"/>
<path fill-rule="evenodd" clip-rule="evenodd" d="M76.4182 7.625H100.99C104.941 7.625 107.382 11.9355 105.349 15.3237L77.899 61.0737C76.9803 62.6048 75.3257 63.5417 73.5401 63.5417H48.9682C45.017 63.5417 42.5764 59.2311 44.6093 55.843L72.0593 10.093C72.978 8.56186 74.6326 7.625 76.4182 7.625ZM76.4182 10.1667C75.5254 10.1667 74.6981 10.6351 74.2387 11.4007L46.7887 57.1507C45.7723 58.8447 46.9926 61 48.9682 61H73.5401C74.4329 61 75.2602 60.5316 75.7195 59.766L103.17 14.016C104.186 12.3219 102.966 10.1667 100.99 10.1667H76.4182Z" fill="#9B0F15"/>
<path fill-rule="evenodd" clip-rule="evenodd" d="M76.8881 11.6094C77.4951 11.9618 77.7014 12.7396 77.349 13.3466L65.9115 33.0445C65.5591 33.6514 64.7813 33.8578 64.1744 33.5053C63.5674 33.1529 63.3611 32.3752 63.7135 31.7682L75.151 12.0703C75.5034 11.4633 76.2812 11.257 76.8881 11.6094Z" fill="#FE666D"/>
<path fill-rule="evenodd" clip-rule="evenodd" d="M20.9661 11.6094C20.3591 11.9618 20.1528 12.7396 20.5052 13.3466L31.9427 33.0445C32.2951 33.6514 33.0729 33.8578 33.6798 33.5053C34.2868 33.1529 34.4931 32.3752 34.1407 31.7682L22.7032 12.0703C22.3508 11.4633 21.573 11.257 20.9661 11.6094Z" fill="#DF3840"/>
<path d="M45.1146 14.3366C45.1146 15.2359 44.4034 15.9649 43.526 15.9649C42.6487 15.9649 41.9375 15.2359 41.9375 14.3366C41.9375 13.4374 42.6487 12.7084 43.526 12.7084C44.4034 12.7084 45.1146 13.4374 45.1146 14.3366Z" fill="#AA161D"/>
<path d="M39.5353 14.7338C39.5353 15.8524 38.6506 16.7592 37.5593 16.7592C36.468 16.7592 35.5833 15.8524 35.5833 14.7338C35.5833 13.6152 36.468 12.7084 37.5593 12.7084C38.6506 12.7084 39.5353 13.6152 39.5353 14.7338Z" fill="#AA161D"/>
<path d="M44.4792 20.5319C44.4792 21.6505 43.5945 22.5573 42.5032 22.5573C41.4119 22.5573 40.5272 21.6505 40.5272 20.5319C40.5272 19.4133 41.4119 18.5065 42.5032 18.5065C43.5945 18.5065 44.4792 19.4133 44.4792 20.5319Z" fill="#AA161D"/>
<path d="M48.9968 17.7719C48.9968 18.3311 48.5545 18.7845 48.0088 18.7845C47.4632 18.7845 47.0208 18.3311 47.0208 17.7719C47.0208 17.2126 47.4632 16.7592 48.0088 16.7592C48.5545 16.7592 48.9968 17.2126 48.9968 17.7719Z" fill="#AA161D"/>
<path d="M38.5473 19.5192C38.5473 20.0785 38.105 20.5319 37.5593 20.5319C37.0137 20.5319 36.5714 20.0785 36.5714 19.5192C36.5714 18.9599 37.0137 18.5065 37.5593 18.5065C38.105 18.5065 38.5473 18.9599 38.5473 19.5192Z" fill="#AA161D"/>
<path d="M33.0417 13.3239C33.0417 13.8831 32.5993 14.3365 32.0537 14.3365C31.508 14.3365 31.0657 13.8831 31.0657 13.3239C31.0657 12.7646 31.508 12.3112 32.0537 12.3112C32.5993 12.3112 33.0417 12.7646 33.0417 13.3239Z" fill="#AA161D"/>
<path d="M48.0088 24.8408C48.0088 25.4001 47.5664 25.8535 47.0208 25.8535C46.4751 25.8535 46.0328 25.4001 46.0328 24.8408C46.0328 24.2815 46.4751 23.8281 47.0208 23.8281C47.5664 23.8281 48.0088 24.2815 48.0088 24.8408Z" fill="#AA161D"/>
<path d="M42.9255 25.8535C42.9255 26.4128 42.4831 26.8662 41.9375 26.8662C41.3918 26.8662 40.9495 26.4128 40.9495 25.8535C40.9495 25.2942 41.3918 24.8408 41.9375 24.8408C42.4831 24.8408 42.9255 25.2942 42.9255 25.8535Z" fill="#AA161D"/>
<path d="M52.7783 22.18C52.7783 23.0902 52.0584 23.8281 51.1704 23.8281C50.2824 23.8281 49.5625 23.0902 49.5625 22.18C49.5625 21.2697 50.2824 20.5319 51.1704 20.5319C52.0584 20.5319 52.7783 21.2697 52.7783 22.18Z" fill="#AA161D"/>
<path d="M54.8744 26.8662C54.8744 27.4255 54.4321 27.8789 53.8864 27.8789C53.3408 27.8789 52.8984 27.4255 52.8984 26.8662C52.8984 26.3069 53.3408 25.8535 53.8864 25.8535C54.4321 25.8535 54.8744 26.3069 54.8744 26.8662Z" fill="#AA161D"/>
<path d="M95.3125 77.5209C95.3125 96.4711 79.9503 111.833 61 111.833C42.0497 111.833 26.6875 96.4711 26.6875 77.5209C26.6875 58.5706 42.0497 43.2084 61 43.2084C79.9503 43.2084 95.3125 58.5706 95.3125 77.5209Z" fill="#BCCCD2"/>
<path fill-rule="evenodd" clip-rule="evenodd" d="M97.8541 77.5208C97.8541 97.8748 81.354 114.375 61 114.375C40.646 114.375 24.1458 97.8748 24.1458 77.5208C24.1458 57.1668 40.646 40.6666 61 40.6666C81.354 40.6666 97.8541 57.1668 97.8541 77.5208ZM61 111.833C79.9503 111.833 95.3125 96.4711 95.3125 77.5208C95.3125 58.5705 79.9503 43.2083 61 43.2083C42.0497 43.2083 26.6875 58.5705 26.6875 77.5208C26.6875 96.4711 42.0497 111.833 61 111.833Z" fill="#81A5B0"/>
<path fill-rule="evenodd" clip-rule="evenodd" d="M29.2291 78.7916C28.5273 78.7916 27.9583 78.2227 27.9583 77.5208C27.9583 59.2724 42.7516 44.4791 61 44.4791C61.7018 44.4791 62.2708 45.0481 62.2708 45.75C62.2708 46.4518 61.7018 47.0208 61 47.0208C44.1553 47.0208 30.5 60.6761 30.5 77.5208C30.5 78.2227 29.931 78.7916 29.2291 78.7916Z" fill="#D0DEE3"/>
<path fill-rule="evenodd" clip-rule="evenodd" d="M92.7709 76.25C93.4727 76.25 94.0417 76.819 94.0417 77.5208C94.0417 95.7692 79.2484 110.562 61 110.562C60.2982 110.562 59.7292 109.994 59.7292 109.292C59.7292 108.59 60.2982 108.021 61 108.021C77.8447 108.021 91.5 94.3655 91.5 77.5208C91.5 76.819 92.069 76.25 92.7709 76.25Z" fill="#A2B9C1"/>
<path d="M86.4166 77.5208C86.4166 91.558 75.0372 102.937 61 102.937C46.9627 102.937 35.5833 91.558 35.5833 77.5208C35.5833 63.4836 46.9627 52.1041 61 52.1041C75.0372 52.1041 86.4166 63.4836 86.4166 77.5208Z" fill="#C7D4D8"/>
<path fill-rule="evenodd" clip-rule="evenodd" d="M88.9584 77.5208C88.9584 92.9618 76.441 105.479 61 105.479C45.5591 105.479 33.0417 92.9618 33.0417 77.5208C33.0417 62.0799 45.5591 49.5625 61 49.5625C76.441 49.5625 88.9584 62.0799 88.9584 77.5208ZM61 102.938C75.0373 102.938 86.4167 91.5581 86.4167 77.5208C86.4167 63.4836 75.0373 52.1042 61 52.1042C46.9628 52.1042 35.5834 63.4836 35.5834 77.5208C35.5834 91.5581 46.9628 102.938 61 102.938Z" fill="#81A5B0"/>
<path fill-rule="evenodd" clip-rule="evenodd" d="M61 99.125C72.9316 99.125 82.6041 89.4524 82.6041 77.5208C82.6041 76.8189 83.1731 76.25 83.875 76.25C84.5768 76.25 85.1458 76.8189 85.1458 77.5208C85.1458 90.8562 74.3354 101.667 61 101.667C60.2981 101.667 59.7291 101.098 59.7291 100.396C59.7291 99.6939 60.2981 99.125 61 99.125Z" fill="#B5C3C8"/>
<path fill-rule="evenodd" clip-rule="evenodd" d="M61 55.9167C49.0684 55.9167 39.3959 65.5892 39.3959 77.5208C39.3959 78.2227 38.8269 78.7917 38.125 78.7917C37.4232 78.7917 36.8542 78.2227 36.8542 77.5208C36.8542 64.1855 47.6646 53.375 61 53.375C61.7019 53.375 62.2709 53.944 62.2709 54.6458C62.2709 55.3477 61.7019 55.9167 61 55.9167Z" fill="#D9EAEF"/>
<path d="M68.4265 84.3783V87.7291H53.5934V84.8698L60.6078 77.349C61.3128 76.5647 61.8688 75.8746 62.2758 75.2789C62.6829 74.6733 62.9758 74.1322 63.1545 73.6556C63.3431 73.1691 63.4374 72.7075 63.4374 72.2706C63.4374 71.6154 63.3282 71.0544 63.1098 70.5878C62.8914 70.1112 62.5687 69.7439 62.1418 69.4857C61.7248 69.2276 61.2085 69.0985 60.593 69.0985C59.9377 69.0985 59.3718 69.2574 58.8952 69.5751C58.4286 69.8928 58.0711 70.3346 57.8229 70.9005C57.5847 71.4664 57.4655 72.1068 57.4655 72.8217H53.1616C53.1616 71.531 53.4693 70.3495 54.0849 69.2772C54.7005 68.195 55.5692 67.3362 56.6911 66.7008C57.813 66.0555 59.1434 65.7328 60.6823 65.7328C62.2014 65.7328 63.4821 65.981 64.5246 66.4774C65.577 66.9639 66.3713 67.6688 66.9074 68.5922C67.4535 69.5056 67.7265 70.5977 67.7265 71.8685C67.7265 72.5834 67.6123 73.2833 67.384 73.9684C67.1556 74.6435 66.828 75.3186 66.4011 75.9938C65.9841 76.659 65.4777 77.3341 64.882 78.0192C64.2863 78.7042 63.6261 79.4141 62.9013 80.1488L59.1335 84.3783H68.4265Z" fill="#D9EAEF"/>
<path d="M68.4265 84.3783H70.9681C70.9681 82.9746 69.8302 81.8366 68.4265 81.8366V84.3783ZM68.4265 87.7291V90.2708C69.8302 90.2708 70.9681 89.1329 70.9681 87.7291H68.4265ZM53.5934 87.7291H51.0518C51.0518 89.1329 52.1897 90.2708 53.5934 90.2708V87.7291ZM53.5934 84.8698L51.7347 83.1362C51.2958 83.6068 51.0518 84.2263 51.0518 84.8698H53.5934ZM60.6078 77.349L62.4666 79.0826C62.4772 79.0711 62.4878 79.0596 62.4982 79.048L60.6078 77.349ZM62.2758 75.2789L64.3743 76.7129C64.378 76.7075 64.3816 76.7022 64.3853 76.6968L62.2758 75.2789ZM63.1545 73.6556L60.7847 72.7368C60.7813 72.7456 60.778 72.7544 60.7746 72.7632L63.1545 73.6556ZM63.1098 70.5878L60.7993 71.6468C60.8021 71.6529 60.805 71.6591 60.8078 71.6653L63.1098 70.5878ZM62.1418 69.4857L60.804 71.6468C60.8115 71.6515 60.8191 71.6561 60.8267 71.6607L62.1418 69.4857ZM58.8952 69.5751L57.4853 67.4603C57.4785 67.4649 57.4716 67.4695 57.4648 67.4741L58.8952 69.5751ZM57.8229 70.9005L55.4953 69.8796C55.4903 69.8911 55.4853 69.9026 55.4804 69.9142L57.8229 70.9005ZM57.4655 72.8217V75.3633C58.8692 75.3633 60.0072 74.2254 60.0072 72.8217H57.4655ZM53.1616 72.8217H50.6199C50.6199 74.2254 51.7578 75.3633 53.1616 75.3633V72.8217ZM54.0849 69.2772L56.2892 70.5426L56.2942 70.5339L54.0849 69.2772ZM56.6911 66.7008L57.9437 68.9124C57.9486 68.9096 57.9535 68.9068 57.9584 68.904L56.6911 66.7008ZM64.5246 66.4774L63.4318 68.7722C63.4406 68.7763 63.4493 68.7805 63.4581 68.7845L64.5246 66.4774ZM66.9074 68.5922L64.7094 69.8684C64.7148 69.8778 64.7203 69.8871 64.7259 69.8964L66.9074 68.5922ZM67.384 73.9684L69.7917 74.7828L69.7952 74.7721L67.384 73.9684ZM66.4011 75.9938L64.2528 74.6353L64.2475 74.6438L66.4011 75.9938ZM62.9013 80.1488L61.0919 78.3638C61.0616 78.3945 61.0322 78.426 61.0035 78.4581L62.9013 80.1488ZM59.1335 84.3783L57.2357 82.6876C56.5696 83.4354 56.4046 84.5045 56.8143 85.4182C57.224 86.332 58.1321 86.92 59.1335 86.92V84.3783ZM65.8848 84.3783V87.7291H70.9681V84.3783H65.8848ZM68.4265 85.1875H53.5934V90.2708H68.4265V85.1875ZM56.1351 87.7291V84.8698H51.0518V87.7291H56.1351ZM55.4522 86.6033L62.4666 79.0826L58.7491 75.6154L51.7347 83.1362L55.4522 86.6033ZM62.4982 79.048C63.2474 78.2144 63.8822 77.4331 64.3743 76.7129L60.1773 73.8449C59.8553 74.3162 59.3781 74.9149 58.7175 75.65L62.4982 79.048ZM64.3853 76.6968C64.8594 75.9914 65.2635 75.2704 65.5343 74.5481L60.7746 72.7632C60.6881 72.994 60.5064 73.3552 60.1664 73.8611L64.3853 76.6968ZM65.5242 74.5745C65.8049 73.8506 65.9791 73.0764 65.9791 72.2706H60.8958C60.8958 72.3386 60.8813 72.4877 60.7847 72.7368L65.5242 74.5745ZM65.9791 72.2706C65.9791 71.3409 65.8249 70.3928 65.4118 69.5103L60.8078 71.6653C60.8316 71.716 60.8958 71.8899 60.8958 72.2706H65.9791ZM65.4203 69.5288C65.0009 68.6137 64.3429 67.8464 63.4569 67.3107L60.8267 71.6607C60.8259 71.6602 60.8211 71.6572 60.814 71.6513C60.8069 71.6454 60.8001 71.6387 60.7944 71.6322C60.7887 71.6257 60.7863 71.622 60.7868 71.6227C60.7874 71.6236 60.792 71.6309 60.7993 71.6468L65.4203 69.5288ZM63.4796 67.3246C62.5698 66.7614 61.5614 66.5568 60.593 66.5568V71.6402C60.7246 71.6402 60.7974 71.6541 60.8254 71.6611C60.8504 71.6673 60.8369 71.6672 60.804 71.6468L63.4796 67.3246ZM60.593 66.5568C59.5103 66.5568 58.4373 66.8256 57.4853 67.4603L60.3051 71.6899C60.3062 71.6891 60.365 71.6402 60.593 71.6402V66.5568ZM57.4648 67.4741C56.5666 68.0857 55.9164 68.9195 55.4953 69.8796L60.1506 71.9214C60.2259 71.7497 60.2905 71.6999 60.3256 71.676L57.4648 67.4741ZM55.4804 69.9142C55.0909 70.8393 54.9238 71.823 54.9238 72.8217H60.0072C60.0072 72.3906 60.0784 72.0936 60.1654 71.8868L55.4804 69.9142ZM57.4655 70.28H53.1616V75.3633H57.4655V70.28ZM55.7032 72.8217C55.7032 71.9547 55.9046 71.2126 56.2892 70.5426L51.8806 68.0118C51.0341 69.4864 50.6199 71.1072 50.6199 72.8217H55.7032ZM56.2942 70.5339C56.6746 69.8651 57.2061 69.3301 57.9437 68.9124L55.4385 64.4892C53.9323 65.3423 52.7264 66.5249 51.8756 68.0206L56.2942 70.5339ZM57.9584 68.904C58.6277 68.519 59.5038 68.2745 60.6823 68.2745V63.1911C58.783 63.1911 56.9983 63.5919 55.4238 64.4976L57.9584 68.904ZM60.6823 68.2745C61.9375 68.2745 62.8207 68.4812 63.4318 68.7722L65.6173 64.1826C64.1435 63.4808 62.4652 63.1911 60.6823 63.1911V68.2745ZM63.4581 68.7845C64.0792 69.0716 64.4583 69.4359 64.7094 69.8684L69.1054 67.3159C68.2843 65.9017 67.0748 64.8562 65.5911 64.1703L63.4581 68.7845ZM64.7259 69.8964C64.9941 70.3451 65.1848 70.9673 65.1848 71.8685H70.2682C70.2682 70.2281 69.9128 68.666 69.089 67.288L64.7259 69.8964ZM65.1848 71.8685C65.1848 72.3074 65.1156 72.7361 64.9727 73.1646L69.7952 74.7721C70.1091 73.8306 70.2682 72.8594 70.2682 71.8685H65.1848ZM64.9763 73.154C64.8198 73.6168 64.5848 74.1105 64.2529 74.6354L68.5493 77.3522C69.0712 76.5268 69.4915 75.6702 69.7916 74.7827L64.9763 73.154ZM64.2475 74.6438C63.9105 75.1814 63.4862 75.7509 62.9641 76.3514L66.8 79.687C67.4693 78.9173 68.0576 78.1366 68.5546 77.3437L64.2475 74.6438ZM62.9641 76.3514C62.4076 76.9913 61.7842 77.662 61.0919 78.3638L64.7107 81.9338C65.4679 81.1662 66.165 80.4172 66.8 79.687L62.9641 76.3514ZM61.0035 78.4581L57.2357 82.6876L61.0313 86.069L64.7991 81.8395L61.0035 78.4581ZM59.1335 86.92H68.4265V81.8366H59.1335V86.92Z" fill="#81A5B0"/>
</g>
<defs>
<filter id="filter0_d_129_1045" x="0" y="0" width="124.542" height="124.542" filterUnits="userSpaceOnUse" color-interpolation-filters="sRGB">
<feFlood flood-opacity="0" result="BackgroundImageFix"/>
<feColorMatrix in="SourceAlpha" type="matrix" values="0 0 0 0 0 0 0 0 0 0 0 0 0 0 0 0 0 0 127 0" result="hardAlpha"/>
<feOffset dx="2.54167" dy="2.54167"/>
<feColorMatrix type="matrix" values="0 0 0 0 0.637788 0 0 0 0 0.545996 0 0 0 0 0.47948 0 0 0 0.2 0"/>
<feBlend mode="normal" in2="BackgroundImageFix" result="effect1_dropShadow_129_1045"/>
<feBlend mode="normal" in="SourceGraphic" in2="effect1_dropShadow_129_1045" result="shape"/>
</filter>
</defs>
</svg>
