<svg width="122" height="122" viewBox="0 0 122 122" fill="none" xmlns="http://www.w3.org/2000/svg">
<g filter="url(#filter0_d_129_1019)">
<path d="M47.761 11.4003C47.3017 10.6347 46.4743 10.1663 45.5816 10.1663H21.0097C19.0341 10.1663 17.8138 12.3215 18.8302 14.0156L46.2802 59.7656C46.7396 60.5312 47.5669 60.9996 48.4597 60.9996H73.0316C75.0072 60.9996 76.2275 58.8443 75.211 57.1502L47.761 11.4003Z" fill="#C52229"/>
<path fill-rule="evenodd" clip-rule="evenodd" d="M45.582 7.62463H21.0101C17.0589 7.62463 14.6183 11.9352 16.6512 15.3233L44.1012 61.0733C45.0199 62.6044 46.6745 63.5413 48.4601 63.5413H73.032C76.9832 63.5413 79.4238 59.2308 77.3909 55.8426L49.9409 10.0926C49.0222 8.56149 47.3676 7.62463 45.582 7.62463ZM45.582 10.1663C46.4748 10.1663 47.3021 10.6347 47.7614 11.4003L75.2114 57.1503C76.2279 58.8444 75.0076 60.9996 73.032 60.9996H48.4601C47.5673 60.9996 46.74 60.5312 46.2807 59.7656L18.8307 14.0156C17.8142 12.3216 19.0345 10.1663 21.0101 10.1663H45.582Z" fill="#9B0F15"/>
<path d="M74.2386 11.4003C74.698 10.6347 75.5253 10.1663 76.4181 10.1663H100.99C102.966 10.1663 104.186 12.3215 103.169 14.0156L75.7194 59.7656C75.2601 60.5312 74.4327 60.9996 73.5399 60.9996H48.9681C46.9925 60.9996 45.7722 58.8443 46.7886 57.1502L74.2386 11.4003Z" fill="#F1333B"/>
<path fill-rule="evenodd" clip-rule="evenodd" d="M76.4183 7.62463H100.99C104.941 7.62463 107.382 11.9352 105.349 15.3233L77.8991 61.0733C76.9804 62.6044 75.3257 63.5413 73.5401 63.5413H48.9683C45.017 63.5413 42.5764 59.2308 44.6093 55.8426L72.0593 10.0926C72.978 8.56149 74.6327 7.62463 76.4183 7.62463ZM76.4183 10.1663C75.5255 10.1663 74.6981 10.6347 74.2388 11.4003L46.7888 57.1503C45.7723 58.8444 46.9926 60.9996 48.9683 60.9996H73.5401C74.4329 60.9996 75.2603 60.5312 75.7196 59.7656L103.17 14.0156C104.186 12.3216 102.966 10.1663 100.99 10.1663H76.4183Z" fill="#9B0F15"/>
<path fill-rule="evenodd" clip-rule="evenodd" d="M76.888 11.6089C77.495 11.9614 77.7013 12.7391 77.3489 13.3461L65.9114 33.044C65.5589 33.6509 64.7812 33.8573 64.1742 33.5049C63.5673 33.1524 63.3609 32.3747 63.7134 31.7677L75.1509 12.0698C75.5033 11.4628 76.281 11.2565 76.888 11.6089Z" fill="#FE666D"/>
<path fill-rule="evenodd" clip-rule="evenodd" d="M20.9655 11.6089C20.3585 11.9614 20.1522 12.7391 20.5046 13.3461L31.9421 33.044C32.2945 33.6509 33.0723 33.8573 33.6793 33.5049C34.2862 33.1524 34.4926 32.3747 34.1401 31.7677L22.7026 12.0698C22.3502 11.4628 21.5725 11.2565 20.9655 11.6089Z" fill="#DF3840"/>
<path d="M45.1144 14.3359C45.1144 15.2352 44.4032 15.9642 43.5259 15.9642C42.6485 15.9642 41.9373 15.2352 41.9373 14.3359C41.9373 13.4366 42.6485 12.7076 43.5259 12.7076C44.4032 12.7076 45.1144 13.4366 45.1144 14.3359Z" fill="#AA161D"/>
<path d="M39.5351 14.733C39.5351 15.8516 38.6505 16.7584 37.5592 16.7584C36.4678 16.7584 35.5832 15.8516 35.5832 14.733C35.5832 13.6144 36.4678 12.7076 37.5592 12.7076C38.6505 12.7076 39.5351 13.6144 39.5351 14.733Z" fill="#AA161D"/>
<path d="M44.4795 20.5312C44.4795 21.6498 43.5948 22.5566 42.5035 22.5566C41.4122 22.5566 40.5275 21.6498 40.5275 20.5312C40.5275 19.4127 41.4122 18.5059 42.5035 18.5059C43.5948 18.5059 44.4795 19.4127 44.4795 20.5312Z" fill="#AA161D"/>
<path d="M48.9967 17.7711C48.9967 18.3304 48.5543 18.7838 48.0087 18.7838C47.463 18.7838 47.0207 18.3304 47.0207 17.7711C47.0207 17.2118 47.463 16.7584 48.0087 16.7584C48.5543 16.7584 48.9967 17.2118 48.9967 17.7711Z" fill="#AA161D"/>
<path d="M38.5476 19.5186C38.5476 20.0779 38.1053 20.5312 37.5597 20.5312C37.014 20.5312 36.5717 20.0779 36.5717 19.5186C36.5717 18.9593 37.014 18.5059 37.5597 18.5059C38.1053 18.5059 38.5476 18.9593 38.5476 19.5186Z" fill="#AA161D"/>
<path d="M33.0416 13.3232C33.0416 13.8825 32.5992 14.3359 32.0536 14.3359C31.5079 14.3359 31.0656 13.8825 31.0656 13.3232C31.0656 12.7639 31.5079 12.3105 32.0536 12.3105C32.5992 12.3105 33.0416 12.7639 33.0416 13.3232Z" fill="#AA161D"/>
<path d="M48.0088 24.8402C48.0088 25.3995 47.5664 25.8529 47.0208 25.8529C46.4751 25.8529 46.0328 25.3995 46.0328 24.8402C46.0328 24.2809 46.4751 23.8275 47.0208 23.8275C47.5664 23.8275 48.0088 24.2809 48.0088 24.8402Z" fill="#AA161D"/>
<path d="M42.9255 25.8529C42.9255 26.4122 42.4831 26.8656 41.9375 26.8656C41.3918 26.8656 40.9495 26.4122 40.9495 25.8529C40.9495 25.2936 41.3918 24.8402 41.9375 24.8402C42.4831 24.8402 42.9255 25.2936 42.9255 25.8529Z" fill="#AA161D"/>
<path d="M52.7781 22.1794C52.7781 23.0896 52.0583 23.8275 51.1702 23.8275C50.2822 23.8275 49.5623 23.0896 49.5623 22.1794C49.5623 21.2691 50.2822 20.5312 51.1702 20.5312C52.0583 20.5312 52.7781 21.2691 52.7781 22.1794Z" fill="#AA161D"/>
<path d="M54.8742 26.8656C54.8742 27.4249 54.4319 27.8783 53.8863 27.8783C53.3406 27.8783 52.8983 27.4249 52.8983 26.8656C52.8983 26.3063 53.3406 25.8529 53.8863 25.8529C54.4319 25.8529 54.8742 26.3063 54.8742 26.8656Z" fill="#AA161D"/>
<path d="M94.8118 75.8958C94.8118 94.846 79.4496 110.208 60.4993 110.208C41.5491 110.208 26.1868 94.846 26.1868 75.8958C26.1868 56.9455 41.5491 41.5833 60.4993 41.5833C79.4496 41.5833 94.8118 56.9455 94.8118 75.8958Z" fill="#FFBB0D"/>
<path fill-rule="evenodd" clip-rule="evenodd" d="M97.3535 75.8958C97.3535 96.2498 80.8533 112.75 60.4993 112.75C40.1453 112.75 23.6452 96.2498 23.6452 75.8958C23.6452 55.5418 40.1453 39.0416 60.4993 39.0416C80.8533 39.0416 97.3535 55.5418 97.3535 75.8958ZM60.4993 110.208C79.4496 110.208 94.8118 94.8461 94.8118 75.8958C94.8118 56.9455 79.4496 41.5833 60.4993 41.5833C41.5491 41.5833 26.1868 56.9455 26.1868 75.8958C26.1868 94.8461 41.5491 110.208 60.4993 110.208Z" fill="#E89B05"/>
<path fill-rule="evenodd" clip-rule="evenodd" d="M28.7285 77.1666C28.0267 77.1666 27.4577 76.5977 27.4577 75.8958C27.4577 57.6474 42.251 42.8541 60.4994 42.8541C61.2012 42.8541 61.7702 43.4231 61.7702 44.125C61.7702 44.8268 61.2012 45.3958 60.4994 45.3958C43.6547 45.3958 29.9994 59.0511 29.9994 75.8958C29.9994 76.5977 29.4304 77.1666 28.7285 77.1666Z" fill="#E8AA0A"/>
<path fill-rule="evenodd" clip-rule="evenodd" d="M92.2702 74.625C92.972 74.625 93.541 75.194 93.541 75.8958C93.541 94.1442 78.7478 108.938 60.4993 108.938C59.7975 108.938 59.2285 108.369 59.2285 107.667C59.2285 106.965 59.7975 106.396 60.4993 106.396C77.344 106.396 90.9993 92.7405 90.9993 75.8958C90.9993 75.194 91.5683 74.625 92.2702 74.625Z" fill="#E8AA0A"/>
<path d="M85.916 75.8958C85.916 89.933 74.5366 101.312 60.4993 101.312C46.4621 101.312 35.0827 89.933 35.0827 75.8958C35.0827 61.8586 46.4621 50.4791 60.4993 50.4791C74.5366 50.4791 85.916 61.8586 85.916 75.8958Z" fill="#FFDD28"/>
<path fill-rule="evenodd" clip-rule="evenodd" d="M88.4577 75.8958C88.4577 91.3368 75.9403 103.854 60.4993 103.854C45.0584 103.854 32.541 91.3368 32.541 75.8958C32.541 60.4549 45.0584 47.9375 60.4993 47.9375C75.9403 47.9375 88.4577 60.4549 88.4577 75.8958ZM60.4993 101.312C74.5366 101.312 85.916 89.9331 85.916 75.8958C85.916 61.8586 74.5366 50.4792 60.4993 50.4792C46.4621 50.4792 35.0827 61.8586 35.0827 75.8958C35.0827 89.9331 46.4621 101.312 60.4993 101.312Z" fill="#E89B05"/>
<path fill-rule="evenodd" clip-rule="evenodd" d="M60.4994 97.5C72.431 97.5 82.1035 87.8274 82.1035 75.8958C82.1035 75.1939 82.6725 74.625 83.3744 74.625C84.0762 74.625 84.6452 75.1939 84.6452 75.8958C84.6452 89.2312 73.8347 100.042 60.4994 100.042C59.7975 100.042 59.2285 99.4727 59.2285 98.7708C59.2285 98.0689 59.7975 97.5 60.4994 97.5Z" fill="#ECC704"/>
<path fill-rule="evenodd" clip-rule="evenodd" d="M60.4993 54.2917C48.5677 54.2917 38.8952 63.9642 38.8952 75.8958C38.8952 76.5977 38.3262 77.1667 37.6243 77.1667C36.9225 77.1667 36.3535 76.5977 36.3535 75.8958C36.3535 62.5605 47.164 51.75 60.4993 51.75C61.2012 51.75 61.7702 52.319 61.7702 53.0208C61.7702 53.7227 61.2012 54.2917 60.4993 54.2917Z" fill="#FFEF9C"/>
<path d="M62.7204 85.5626H58.4164V68.9723L53.2785 70.5658V67.066L62.2587 63.8492H62.7204V85.5626Z" fill="#FFEF9C"/>
<path fill-rule="evenodd" clip-rule="evenodd" d="M65.262 85.5627C65.262 86.9664 64.1241 88.1043 62.7204 88.1043H58.4164C57.0127 88.1043 55.8748 86.9664 55.8748 85.5627V72.4217L54.0314 72.9934C53.26 73.2327 52.4209 73.0911 51.7708 72.612C51.1206 72.133 50.7368 71.3734 50.7368 70.5658V67.0661C50.7368 65.9928 51.411 65.0352 52.4214 64.6733L61.4016 61.4565C61.6766 61.358 61.9666 61.3076 62.2587 61.3076H62.7204C64.1241 61.3076 65.262 62.4456 65.262 63.8493V85.5627ZM58.4164 68.9723V85.5627H62.7204V63.8493H62.2587L53.2785 67.0661V70.5658L58.4164 68.9723Z" fill="#E89B05"/>
</g>
<defs>
<filter id="filter0_d_129_1019" x="0" y="0" width="124.542" height="124.542" filterUnits="userSpaceOnUse" color-interpolation-filters="sRGB">
<feFlood flood-opacity="0" result="BackgroundImageFix"/>
<feColorMatrix in="SourceAlpha" type="matrix" values="0 0 0 0 0 0 0 0 0 0 0 0 0 0 0 0 0 0 127 0" result="hardAlpha"/>
<feOffset dx="2.54167" dy="2.54167"/>
<feColorMatrix type="matrix" values="0 0 0 0 0.637788 0 0 0 0 0.545996 0 0 0 0 0.47948 0 0 0 0.2 0"/>
<feBlend mode="normal" in2="BackgroundImageFix" result="effect1_dropShadow_129_1019"/>
<feBlend mode="normal" in="SourceGraphic" in2="effect1_dropShadow_129_1019" result="shape"/>
</filter>
</defs>
</svg>
