<svg width="19" height="19" viewBox="0 0 19 19" fill="none" xmlns="http://www.w3.org/2000/svg">
<path d="M18.125 4.89099L14.1449 0.901931C13.8769 0.627124 13.5133 0.466226 13.1297 0.452713C12.935 0.448229 12.7414 0.483347 12.5608 0.555934C12.3801 0.628521 12.216 0.737065 12.0785 0.874978L9.70664 3.23787L1.29727 11.6562C1.16331 11.7892 1.05702 11.9473 0.984541 12.1216C0.912063 12.2958 0.874832 12.4827 0.875001 12.6715V16.6875C0.875001 17.0687 1.02645 17.4344 1.29603 17.7039C1.56562 17.9735 1.93125 18.125 2.3125 18.125H6.32852C6.70932 18.1233 7.07412 17.9716 7.34375 17.7027L18.125 6.92146C18.3917 6.65084 18.5411 6.28616 18.5411 5.90623C18.5411 5.5263 18.3917 5.16162 18.125 4.89099ZM15.25 7.76599L11.234 3.74998L13.0938 1.89021L17.1098 5.90623L15.25 7.76599Z" fill="#55524B"/>
</svg>
